0
SECTION
2
ENTITIES
0
CIRCLE
8
stator
10
0
20
0
40
13.841672341443699
0
CIRCLE
8
stator
10
0
20
0
40
25.5
0
LINE
8
stator
10
13.841672341443699
20
-0.8153418026489355
11
13.841672341443699
21
0.8153418026489355
0
LINE
8
stator
10
13.841672341443699
20
0.8153418026489355
11
23.751250851216554
21
0.8153418026489355
0
LINE
8
stator
10
23.751250851216554
20
0.8153418026489355
11
23.751250851216554
21
-0.8153418026489355
0
LINE
8
stator
10
23.751250851216554
20
-0.8153418026489355
11
13.841672341443699
21
-0.8153418026489355
0
LINE
8
stator
10
13.581054780425314
20
2.794928713602739
11
13.159002806837782
21
4.370048122466122
0
LINE
8
stator
10
13.159002806837782
20
4.370048122466122
11
22.730920617066523
21
6.934835769733993
0
LINE
8
stator
10
22.730920617066523
20
6.934835769733993
11
23.152972590654052
21
5.3597163608706095
0
LINE
8
stator
10
23.152972590654052
20
5.3597163608706095
11
13.581054780425314
21
2.794928713602739
0
LINE
8
stator
10
12.394910779875143
20
6.214729456860472
11
11.57956897722621
21
7.626942884583225
0
LINE
8
stator
10
11.57956897722621
20
7.626942884583225
11
20.16151570748584
21
12.581732139469652
0
LINE
8
stator
10
20.16151570748584
20
12.581732139469652
11
20.976857510134778
21
11.169518711746898
0
LINE
8
stator
10
20.976857510134778
20
11.169518711746898
11
12.394910779875143
21
6.214729456860472
0
LINE
8
stator
10
10.364074093235043
20
9.211006657959192
11
9.211006657959192
21
10.364074093235043
0
LINE
8
stator
10
9.211006657959192
20
10.364074093235043
11
16.21813682092006
21
17.37120425619591
0
LINE
8
stator
10
16.21813682092006
20
17.37120425619591
11
17.37120425619591
21
16.21813682092006
0
LINE
8
stator
10
17.37120425619591
20
16.21813682092006
11
10.364074093235043
21
9.211006657959192
0
LINE
8
stator
10
7.626942884583228
20
11.579568977226208
11
6.214729456860475
21
12.394910779875142
0
LINE
8
stator
10
6.214729456860475
20
12.394910779875142
11
11.169518711746901
21
20.976857510134774
0
LINE
8
stator
10
11.169518711746901
20
20.976857510134774
11
12.581732139469656
21
20.161515707485837
0
LINE
8
stator
10
12.581732139469656
20
20.161515707485837
11
7.626942884583228
21
11.579568977226208
0
LINE
8
stator
10
4.370048122466122
20
13.159002806837782
11
2.794928713602739
21
13.581054780425314
0
LINE
8
stator
10
2.794928713602739
20
13.581054780425314
11
5.3597163608706095
21
23.152972590654052
0
LINE
8
stator
10
5.3597163608706095
20
23.152972590654052
11
6.934835769733993
21
22.730920617066523
0
LINE
8
stator
10
6.934835769733993
20
22.730920617066523
11
4.370048122466122
21
13.159002806837782
0
LINE
8
stator
10
0.8153418026489364
20
13.841672341443699
11
-0.8153418026489346
21
13.841672341443699
0
LINE
8
stator
10
-0.8153418026489346
20
13.841672341443699
11
-0.8153418026489341
21
23.751250851216554
0
LINE
8
stator
10
-0.8153418026489341
20
23.751250851216554
11
0.815341802648937
21
23.751250851216554
0
LINE
8
stator
10
0.815341802648937
20
23.751250851216554
11
0.8153418026489364
21
13.841672341443699
0
LINE
8
stator
10
-2.7949287136027374
20
13.581054780425314
11
-4.3700481224661205
21
13.159002806837782
0
LINE
8
stator
10
-4.3700481224661205
20
13.159002806837782
11
-6.93483576973399
21
22.730920617066523
0
LINE
8
stator
10
-6.93483576973399
20
22.730920617066523
11
-5.359716360870607
21
23.152972590654052
0
LINE
8
stator
10
-5.359716360870607
20
23.152972590654052
11
-2.7949287136027374
21
13.581054780425314
0
LINE
8
stator
10
-6.2147294568604705
20
12.394910779875143
11
-7.626942884583223
21
11.57956897722621
0
LINE
8
stator
10
-7.626942884583223
20
11.57956897722621
11
-12.581732139469649
21
20.16151570748584
0
LINE
8
stator
10
-12.581732139469649
20
20.16151570748584
11
-11.169518711746894
21
20.976857510134778
0
LINE
8
stator
10
-11.169518711746894
20
20.976857510134778
11
-6.2147294568604705
21
12.394910779875143
0
LINE
8
stator
10
-9.21100665795919
20
10.364074093235043
11
-10.364074093235041
21
9.211006657959192
0
LINE
8
stator
10
-10.364074093235041
20
9.211006657959192
11
-17.37120425619591
21
16.21813682092006
0
LINE
8
stator
10
-17.37120425619591
20
16.21813682092006
11
-16.21813682092006
21
17.37120425619591
0
LINE
8
stator
10
-16.21813682092006
20
17.37120425619591
11
-9.21100665795919
21
10.364074093235043
0
LINE
8
stator
10
-11.57956897722621
20
7.626942884583225
11
-12.394910779875143
21
6.214729456860472
0
LINE
8
stator
10
-12.394910779875143
20
6.214729456860472
11
-20.976857510134778
21
11.169518711746898
0
LINE
8
stator
10
-20.976857510134778
20
11.169518711746898
11
-20.16151570748584
21
12.581732139469652
0
LINE
8
stator
10
-20.16151570748584
20
12.581732139469652
11
-11.57956897722621
21
7.626942884583225
0
LINE
8
stator
10
-13.15900280683778
20
4.370048122466126
11
-13.581054780425312
21
2.7949287136027428
0
LINE
8
stator
10
-13.581054780425312
20
2.7949287136027428
11
-23.15297259065405
21
5.359716360870617
0
LINE
8
stator
10
-23.15297259065405
20
5.359716360870617
11
-22.73092061706652
21
6.934835769734
0
LINE
8
stator
10
-22.73092061706652
20
6.934835769734
11
-13.15900280683778
21
4.370048122466126
0
LINE
8
stator
10
-13.841672341443699
20
0.8153418026489372
11
-13.841672341443699
21
-0.8153418026489339
0
LINE
8
stator
10
-13.841672341443699
20
-0.8153418026489339
11
-23.751250851216554
21
-0.8153418026489326
0
LINE
8
stator
10
-23.751250851216554
20
-0.8153418026489326
11
-23.751250851216554
21
0.8153418026489384
0
LINE
8
stator
10
-23.751250851216554
20
0.8153418026489384
11
-13.841672341443699
21
0.8153418026489372
0
LINE
8
stator
10
-13.581054780425314
20
-2.7949287136027396
11
-13.159002806837782
21
-4.370048122466123
0
LINE
8
stator
10
-13.159002806837782
20
-4.370048122466123
11
-22.730920617066523
21
-6.934835769733994
0
LINE
8
stator
10
-22.730920617066523
20
-6.934835769733994
11
-23.152972590654052
21
-5.359716360870611
0
LINE
8
stator
10
-23.152972590654052
20
-5.359716360870611
11
-13.581054780425314
21
-2.7949287136027396
0
LINE
8
stator
10
-12.394910779875145
20
-6.21472945686047
11
-11.579568977226211
21
-7.626942884583222
0
LINE
8
stator
10
-11.579568977226211
20
-7.626942884583222
11
-20.161515707485844
21
-12.581732139469647
0
LINE
8
stator
10
-20.161515707485844
20
-12.581732139469647
11
-20.97685751013478
21
-11.169518711746893
0
LINE
8
stator
10
-20.97685751013478
20
-11.169518711746893
11
-12.394910779875145
21
-6.21472945686047
0
LINE
8
stator
10
-10.364074093235047
20
-9.211006657959185
11
-9.211006657959196
21
-10.364074093235036
0
LINE
8
stator
10
-9.211006657959196
20
-10.364074093235036
11
-16.21813682092007
21
-17.3712042561959
0
LINE
8
stator
10
-16.21813682092007
20
-17.3712042561959
11
-17.37120425619592
21
-16.218136820920048
0
LINE
8
stator
10
-17.37120425619592
20
-16.218136820920048
11
-10.364074093235047
21
-9.211006657959185
0
LINE
8
stator
10
-7.626942884583232
20
-11.579568977226204
11
-6.214729456860479
21
-12.394910779875142
0
LINE
8
stator
10
-6.214729456860479
20
-12.394910779875142
11
-11.16951871174691
21
-20.976857510134774
0
LINE
8
stator
10
-11.16951871174691
20
-20.976857510134774
11
-12.581732139469665
21
-20.161515707485837
0
LINE
8
stator
10
-12.581732139469665
20
-20.161515707485837
11
-7.626942884583232
21
-11.579568977226204
0
LINE
8
stator
10
-4.3700481224661205
20
-13.159002806837782
11
-2.7949287136027374
21
-13.581054780425314
0
LINE
8
stator
10
-2.7949287136027374
20
-13.581054780425314
11
-5.359716360870607
21
-23.152972590654052
0
LINE
8
stator
10
-5.359716360870607
20
-23.152972590654052
11
-6.93483576973399
21
-22.730920617066523
0
LINE
8
stator
10
-6.93483576973399
20
-22.730920617066523
11
-4.3700481224661205
21
-13.159002806837782
0
LINE
8
stator
10
-0.8153418026489381
20
-13.841672341443699
11
0.815341802648933
21
-13.841672341443699
0
LINE
8
stator
10
0.815341802648933
20
-13.841672341443699
11
0.8153418026489312
21
-23.751250851216554
0
LINE
8
stator
10
0.8153418026489312
20
-23.751250851216554
11
-0.8153418026489399
21
-23.751250851216554
0
LINE
8
stator
10
-0.8153418026489399
20
-23.751250851216554
11
-0.8153418026489381
21
-13.841672341443699
0
LINE
8
stator
10
2.794928713602733
20
-13.581054780425314
11
4.370048122466116
21
-13.159002806837785
0
LINE
8
stator
10
4.370048122466116
20
-13.159002806837785
11
6.934835769733982
21
-22.730920617066527
0
LINE
8
stator
10
6.934835769733982
20
-22.730920617066527
11
5.359716360870599
21
-23.152972590654056
0
LINE
8
stator
10
5.359716360870599
20
-23.152972590654056
11
2.794928713602733
21
-13.581054780425314
0
LINE
8
stator
10
6.214729456860475
20
-12.394910779875142
11
7.626942884583228
21
-11.579568977226208
0
LINE
8
stator
10
7.626942884583228
20
-11.579568977226208
11
12.581732139469656
21
-20.161515707485837
0
LINE
8
stator
10
12.581732139469656
20
-20.161515707485837
11
11.169518711746901
21
-20.976857510134774
0
LINE
8
stator
10
11.169518711746901
20
-20.976857510134774
11
6.214729456860475
21
-12.394910779875142
0
LINE
8
stator
10
9.211006657959189
20
-10.364074093235045
11
10.36407409323504
21
-9.211006657959194
0
LINE
8
stator
10
10.36407409323504
20
-9.211006657959194
11
17.371204256195906
21
-16.218136820920062
0
LINE
8
stator
10
17.371204256195906
20
-16.218136820920062
11
16.218136820920055
21
-17.371204256195913
0
LINE
8
stator
10
16.218136820920055
20
-17.371204256195913
11
9.211006657959189
21
-10.364074093235045
0
LINE
8
stator
10
11.579568977226204
20
-7.626942884583232
11
12.394910779875142
21
-6.214729456860479
0
LINE
8
stator
10
12.394910779875142
20
-6.214729456860479
11
20.97685751013477
21
-11.169518711746912
0
LINE
8
stator
10
20.97685751013477
20
-11.169518711746912
11
20.161515707485833
21
-12.581732139469663
0
LINE
8
stator
10
20.161515707485833
20
-12.581732139469663
11
11.579568977226204
21
-7.626942884583232
0
LINE
8
stator
10
13.159002806837778
20
-4.370048122466134
11
13.58105478042531
21
-2.7949287136027507
0
LINE
8
stator
10
13.58105478042531
20
-2.7949287136027507
11
23.15297259065405
21
-5.35971636087063
0
LINE
8
stator
10
23.15297259065405
20
-5.35971636087063
11
22.730920617066513
21
-6.934835769734013
0
LINE
8
stator
10
22.730920617066513
20
-6.934835769734013
11
13.159002806837778
21
-4.370048122466134
0
ENDSEC
0
EOF
