<svg xmlns="http://www.w3.org/2000/svg" width="480" height="480">
<text x="240.0" y="24" text-anchor="middle" font-family="sans-serif" font-size="14">24-slot 8-pole fractional-slot concentrated winding</text>
<line x1="240.0" y1="120.0" x2="240.0" y2="40.0" stroke="#c0392b" stroke-width="10" marker-start="arrow" opacity="0.85"/>
<text x="240.0" y="22.0" text-anchor="middle" font-family="sans-serif" font-size="11">1</text>
<line x1="271.1" y1="124.1" x2="291.8" y2="46.8" stroke="#27ae60" stroke-width="10" marker-start="none" opacity="0.85"/>
<text x="296.4" y="29.4" text-anchor="middle" font-family="sans-serif" font-size="11">2</text>
<line x1="300.0" y1="136.1" x2="340.0" y2="66.8" stroke="#2980b9" stroke-width="10" marker-start="arrow" opacity="0.85"/>
<text x="349.0" y="51.2" text-anchor="middle" font-family="sans-serif" font-size="11">3</text>
<line x1="324.9" y1="155.1" x2="381.4" y2="98.6" stroke="#c0392b" stroke-width="10" marker-start="none" opacity="0.85"/>
<text x="394.1" y="85.9" text-anchor="middle" font-family="sans-serif" font-size="11">4</text>
<line x1="343.9" y1="180.0" x2="413.2" y2="140.0" stroke="#27ae60" stroke-width="10" marker-start="arrow" opacity="0.85"/>
<text x="428.8" y="131.0" text-anchor="middle" font-family="sans-serif" font-size="11">5</text>
<line x1="355.9" y1="208.9" x2="433.2" y2="188.2" stroke="#2980b9" stroke-width="10" marker-start="none" opacity="0.85"/>
<text x="450.6" y="183.6" text-anchor="middle" font-family="sans-serif" font-size="11">6</text>
<line x1="360.0" y1="240.0" x2="440.0" y2="240.0" stroke="#c0392b" stroke-width="10" marker-start="arrow" opacity="0.85"/>
<text x="458.0" y="240.0" text-anchor="middle" font-family="sans-serif" font-size="11">7</text>
<line x1="355.9" y1="271.1" x2="433.2" y2="291.8" stroke="#27ae60" stroke-width="10" marker-start="none" opacity="0.85"/>
<text x="450.6" y="296.4" text-anchor="middle" font-family="sans-serif" font-size="11">8</text>
<line x1="343.9" y1="300.0" x2="413.2" y2="340.0" stroke="#2980b9" stroke-width="10" marker-start="arrow" opacity="0.85"/>
<text x="428.8" y="349.0" text-anchor="middle" font-family="sans-serif" font-size="11">9</text>
<line x1="324.9" y1="324.9" x2="381.4" y2="381.4" stroke="#c0392b" stroke-width="10" marker-start="none" opacity="0.85"/>
<text x="394.1" y="394.1" text-anchor="middle" font-family="sans-serif" font-size="11">10</text>
<line x1="300.0" y1="343.9" x2="340.0" y2="413.2" stroke="#27ae60" stroke-width="10" marker-start="arrow" opacity="0.85"/>
<text x="349.0" y="428.8" text-anchor="middle" font-family="sans-serif" font-size="11">11</text>
<line x1="271.1" y1="355.9" x2="291.8" y2="433.2" stroke="#2980b9" stroke-width="10" marker-start="none" opacity="0.85"/>
<text x="296.4" y="450.6" text-anchor="middle" font-family="sans-serif" font-size="11">12</text>
<line x1="240.0" y1="360.0" x2="240.0" y2="440.0" stroke="#c0392b" stroke-width="10" marker-start="arrow" opacity="0.85"/>
<text x="240.0" y="458.0" text-anchor="middle" font-family="sans-serif" font-size="11">13</text>
<line x1="208.9" y1="355.9" x2="188.2" y2="433.2" stroke="#27ae60" stroke-width="10" marker-start="none" opacity="0.85"/>
<text x="183.6" y="450.6" text-anchor="middle" font-family="sans-serif" font-size="11">14</text>
<line x1="180.0" y1="343.9" x2="140.0" y2="413.2" stroke="#2980b9" stroke-width="10" marker-start="arrow" opacity="0.85"/>
<text x="131.0" y="428.8" text-anchor="middle" font-family="sans-serif" font-size="11">15</text>
<line x1="155.1" y1="324.9" x2="98.6" y2="381.4" stroke="#c0392b" stroke-width="10" marker-start="none" opacity="0.85"/>
<text x="85.9" y="394.1" text-anchor="middle" font-family="sans-serif" font-size="11">16</text>
<line x1="136.1" y1="300.0" x2="66.8" y2="340.0" stroke="#27ae60" stroke-width="10" marker-start="arrow" opacity="0.85"/>
<text x="51.2" y="349.0" text-anchor="middle" font-family="sans-serif" font-size="11">17</text>
<line x1="124.1" y1="271.1" x2="46.8" y2="291.8" stroke="#2980b9" stroke-width="10" marker-start="none" opacity="0.85"/>
<text x="29.4" y="296.4" text-anchor="middle" font-family="sans-serif" font-size="11">18</text>
<line x1="120.0" y1="240.0" x2="40.0" y2="240.0" stroke="#c0392b" stroke-width="10" marker-start="arrow" opacity="0.85"/>
<text x="22.0" y="240.0" text-anchor="middle" font-family="sans-serif" font-size="11">19</text>
<line x1="124.1" y1="208.9" x2="46.8" y2="188.2" stroke="#27ae60" stroke-width="10" marker-start="none" opacity="0.85"/>
<text x="29.4" y="183.6" text-anchor="middle" font-family="sans-serif" font-size="11">20</text>
<line x1="136.1" y1="180.0" x2="66.8" y2="140.0" stroke="#2980b9" stroke-width="10" marker-start="arrow" opacity="0.85"/>
<text x="51.2" y="131.0" text-anchor="middle" font-family="sans-serif" font-size="11">21</text>
<line x1="155.1" y1="155.1" x2="98.6" y2="98.6" stroke="#c0392b" stroke-width="10" marker-start="none" opacity="0.85"/>
<text x="85.9" y="85.9" text-anchor="middle" font-family="sans-serif" font-size="11">22</text>
<line x1="180.0" y1="136.1" x2="140.0" y2="66.8" stroke="#27ae60" stroke-width="10" marker-start="arrow" opacity="0.85"/>
<text x="131.0" y="51.2" text-anchor="middle" font-family="sans-serif" font-size="11">23</text>
<line x1="208.9" y1="124.1" x2="188.2" y2="46.8" stroke="#2980b9" stroke-width="10" marker-start="none" opacity="0.85"/>
<text x="183.6" y="29.4" text-anchor="middle" font-family="sans-serif" font-size="11">24</text>
<circle cx="240" cy="240" r="110" fill="none" stroke="#555" stroke-dasharray="6 4"/>
</svg>