M48
; DRILL file {KiCad 9.0.7} date 2026-03-31T22:03:10+0530
; FORMAT={-:-/ absolute / metric / decimal}
; #@! TF.CreationDate,2026-03-31T22:03:10+05:30
; #@! TF.GenerationSoftware,Kicad,Pcbnew,9.0.7
; #@! TF.FileFunction,Plated,1,4,PTH
FMAT,2
METRIC
; #@! TA.AperFunction,Plated,PTH,ViaDrill
T1C0.200
; #@! TA.AperFunction,Plated,PTH,ViaDrill
T2C0.300
; #@! TA.AperFunction,Plated,PTH,ViaDrill
T3C0.400
; #@! TA.AperFunction,Plated,PTH,ComponentDrill
T4C0.400
; #@! TA.AperFunction,Plated,PTH,ComponentDrill
T5C0.650
; #@! TA.AperFunction,Plated,PTH,ComponentDrill
T6C0.800
; #@! TA.AperFunction,Plated,PTH,ComponentDrill
T7C1.000
; #@! TA.AperFunction,Plated,PTH,ComponentDrill
T8C1.150
%
G90
G05
T1
X14.825Y-18.025
X19.625Y-18.025
X25.675Y-18.025
T2
X1.8Y-35.875
X3.1Y-23.075
X5.843Y-22.718
X6.275Y-28.0
X6.725Y-23.825
X8.125Y-41.796
X9.125Y-32.075
X9.344Y-48.45
X9.381Y-31.37
X9.45Y-23.125
X9.45Y-35.9
X9.868Y-40.642
X9.945Y-41.388
X10.3Y-30.95
X10.9Y-30.35
X11.365Y-41.796
X12.0Y-44.325
X12.425Y-37.675
X12.7Y-28.58
X13.15Y-16.05
X13.275Y-27.5
X13.65Y-18.1
X13.9Y-28.21
X14.2Y-14.2
X14.225Y-43.975
X15.425Y-25.475
X15.537Y-29.262
X15.976Y-29.952
X16.25Y-14.5
X18.1Y-16.4
X18.175Y-17.425
X18.325Y-21.375
X18.7Y-14.95
X19.375Y-14.4
X19.625Y-36.975
X20.2Y-44.725
X20.675Y-13.0
X20.975Y-24.7
X21.05Y-39.075
X21.05Y-42.075
X21.575Y-28.449
X22.06Y-36.495
X22.2Y-22.95
X22.283Y-32.142
X22.875Y-30.425
X22.902Y-16.925
X23.55Y-31.225
X23.616Y-35.175
X23.625Y-37.874
X23.8Y-24.2
X24.4Y-16.375
X24.438Y-37.837
X24.725Y-19.875
X24.875Y-14.875
X25.025Y-31.025
X25.805Y-29.275
X26.175Y-14.7
X26.35Y-24.625
X26.5Y-32.3
X26.6Y-40.068
X26.65Y-35.475
X26.825Y-42.07
X27.3Y-38.025
X27.325Y-29.275
X27.512Y-19.838
X27.75Y-31.05
X27.901Y-34.575
X28.027Y-33.375
X28.075Y-45.475
X28.331Y-30.5
X28.4Y-25.525
X28.472Y-32.398
X28.698Y-27.15
X28.698Y-33.975
X29.075Y-42.897
X29.149Y-24.328
X29.149Y-35.775
X29.55Y-23.675
X30.1Y-23.025
X30.23Y-37.13
X30.7Y-33.175
X30.7Y-33.975
X30.775Y-19.625
X30.83Y-37.722
X31.575Y-32.974
X32.2Y-22.525
X32.2Y-22.525
X32.2Y-24.175
X32.2Y-24.175
X33.025Y-23.35
X33.725Y-32.25
X33.85Y-22.525
X33.85Y-24.175
X35.45Y-26.75
X35.45Y-31.8
X35.85Y-35.175
X36.5Y-22.475
X36.59Y-26.25
X36.9Y-42.07
X37.224Y-32.149
X37.725Y-29.45
X38.6Y-34.575
X38.7Y-38.3
X39.3Y-29.203
X39.462Y-29.987
X39.483Y-38.466
X40.075Y-34.575
X40.125Y-42.07
X40.385Y-38.252
X40.875Y-34.575
X41.076Y-26.45
X41.4Y-25.641
X41.625Y-48.682
X42.0Y-21.245
X42.262Y-34.887
X42.3Y-38.325
X42.48Y-30.125
X42.825Y-45.3
X42.875Y-35.525
X43.1Y-30.724
X43.5Y-34.825
X43.6Y-29.575
X44.274Y-31.1
X44.675Y-22.725
X44.746Y-38.921
X44.8Y-36.475
X45.025Y-31.375
X45.05Y-29.3
X45.125Y-24.375
X45.728Y-34.575
X46.049Y-42.649
X46.062Y-48.082
X46.25Y-41.875
X46.425Y-38.675
X46.575Y-21.725
X46.576Y-34.575
X46.625Y-37.7
X47.25Y-31.475
X47.305Y-47.681
X47.85Y-22.45
X47.9Y-32.15
X48.15Y-20.4
X48.365Y-4.875
X48.523Y-29.252
X48.8Y-23.35
X49.495Y-47.681
X49.7Y-12.625
X49.725Y-38.5
X49.775Y-7.15
X49.855Y-16.434
X49.875Y-34.125
X50.1Y-18.525
X50.123Y-48.177
X50.25Y-3.5
X50.3Y-45.0
X50.575Y-36.3
X50.725Y-16.875
X50.725Y-34.125
X50.728Y-37.655
X50.991Y-30.117
X51.0Y-27.525
X51.05Y-35.525
X51.3Y-42.2
X51.5Y-18.3
X51.625Y-41.35
X51.699Y-31.674
X51.7Y-14.125
X51.725Y-45.188
X51.764Y-29.912
X51.818Y-26.51
X51.85Y-16.875
X52.124Y-27.249
X52.125Y-20.175
X52.275Y-31.119
X52.477Y-29.55
X52.516Y-45.309
X52.875Y-34.35
X53.125Y-6.1
X53.3Y-14.325
X53.365Y-45.309
X53.65Y-15.85
X53.651Y-41.056
X53.975Y-22.525
X54.251Y-40.518
X54.3Y-45.174
X54.3Y-48.551
X54.725Y-23.825
X54.8Y-22.9
X54.851Y-39.05
X54.875Y-14.175
X54.975Y-2.15
X54.975Y-15.525
X55.095Y-26.272
X55.225Y-42.0
X55.326Y-45.049
X55.38Y-42.915
X55.671Y-22.571
X56.075Y-35.642
X56.194Y-27.11
X56.223Y-44.923
X56.3Y-18.35
X56.476Y-34.95
X56.5Y-46.525
X57.025Y-41.25
X57.05Y-14.775
X57.125Y-18.275
X57.231Y-43.025
X57.424Y-44.702
X57.525Y-20.95
X57.575Y-26.375
X57.625Y-38.05
X57.735Y-19.348
X58.193Y-42.018
X58.475Y-31.15
X58.875Y-14.475
X58.999Y-48.799
X59.425Y-42.25
X59.686Y-41.375
X59.887Y-21.987
X59.95Y-5.775
X60.0Y-4.625
X60.101Y-47.575
X60.425Y-25.8
X60.65Y-17.925
X60.787Y-47.163
X61.275Y-48.925
X61.287Y-40.075
X61.3Y-28.2
X61.45Y-31.95
X61.613Y-34.805
X61.625Y-1.375
X61.639Y-42.775
X61.645Y-40.79
X61.655Y-36.655
X62.025Y-47.057
X62.05Y-32.85
X62.475Y-18.675
X62.775Y-34.25
X63.075Y-7.3
X63.177Y-46.397
X63.55Y-8.05
X63.976Y-34.375
X64.025Y-2.075
X64.025Y-3.65
X64.171Y-15.675
X64.377Y-41.055
X64.45Y-2.925
X64.725Y-40.057
X64.775Y-48.175
X64.85Y-2.075
X64.85Y-3.65
X65.075Y-31.05
X65.425Y-43.5
X65.575Y-33.575
X65.594Y-39.945
X65.689Y-37.25
X65.721Y-35.926
X65.825Y-9.825
X66.4Y-15.95
X66.85Y-37.74
X66.925Y-30.8
X67.62Y-34.4
X67.7Y-14.475
X67.701Y-18.686
X67.75Y-31.85
X68.325Y-1.075
X68.625Y-46.175
X69.025Y-33.875
X69.475Y-2.825
X69.65Y-6.225
X70.525Y-44.425
X71.175Y-6.25
X71.525Y-20.35
X73.325Y-44.225
T3
X66.275Y-4.75
T4
X0.95Y-0.95
X0.95Y-2.95
X0.95Y-4.95
X0.95Y-6.95
X0.95Y-8.95
X0.95Y-10.95
X0.95Y-12.95
X0.95Y-14.95
X0.95Y-16.95
X0.95Y-18.95
X5.95Y-0.95
X5.95Y-2.95
X5.95Y-4.95
X5.95Y-6.95
X5.95Y-8.95
X5.95Y-10.95
X5.95Y-12.95
X5.95Y-14.95
X5.95Y-16.95
T5
X17.2Y-1.65
X17.255Y-5.475
X18.47Y-1.65
X18.525Y-5.475
X19.74Y-1.65
X19.795Y-5.475
X21.01Y-1.65
X21.065Y-5.475
X22.28Y-1.65
X22.335Y-5.475
X23.55Y-1.65
X23.605Y-5.475
X24.82Y-1.65
X24.875Y-5.475
X26.09Y-1.65
X26.145Y-5.475
X30.795Y-1.95
X30.85Y-5.6
X32.065Y-1.95
X32.12Y-5.6
X33.335Y-1.95
X33.39Y-5.6
X34.605Y-1.95
X34.66Y-5.6
X35.875Y-1.95
X35.93Y-5.6
X37.145Y-1.95
X37.2Y-5.6
X38.415Y-1.95
X38.47Y-5.6
X39.685Y-1.95
X39.74Y-5.6
X43.885Y-1.95
X45.155Y-1.95
X46.425Y-1.95
X47.695Y-1.95
X48.965Y-1.95
X50.235Y-1.95
X51.505Y-1.95
X52.775Y-1.95
X70.765Y-37.07
X70.765Y-38.34
X70.765Y-39.61
X70.765Y-40.88
X72.035Y-37.07
X72.035Y-38.34
X72.035Y-39.61
X72.035Y-40.88
T6
X2.02Y-46.725
X4.52Y-46.725
T7
X18.26Y-11.15
X20.8Y-11.15
X23.34Y-11.15
X25.88Y-11.15
X28.42Y-11.15
X30.96Y-11.15
X33.5Y-11.15
X35.65Y-45.5
X36.04Y-11.15
X38.19Y-45.5
X38.58Y-11.15
X48.25Y-37.14
X48.25Y-39.68
X48.25Y-42.22
X48.4Y-45.93
X48.4Y-48.47
X68.4Y-22.74
X68.4Y-25.28
X68.4Y-27.82
X68.4Y-30.36
T8
X1.65Y-30.2
M30
